<svg xmlns="http://www.w3.org/2000/svg" xmlns:xlink="http://www.w3.org/1999/xlink" viewBox="0 0 440.39 437.36"><defs><style>.cls-1{fill:none;}.cls-2{clip-path:url(#clip-path);}.cls-3{clip-path:url(#clip-path-2);}.cls-4{fill:#fff;}</style><clipPath id="clip-path" transform="translate(19.16 19.28)"><circle class="cls-1" cx="200" cy="200" r="200"/></clipPath><clipPath id="clip-path-2" transform="translate(19.16 19.28)"><rect class="cls-1" x="2" width="400" height="400"/></clipPath></defs><g id="圖層_2" data-name="圖層 2"><g id="圖層_1-2" data-name="圖層 1"><circle cx="219.16" cy="219.28" r="200"/><g class="cls-2"><g class="cls-3"><polygon class="cls-4" points="84.24 153.52 63.52 153.52 53.16 171.47 63.52 189.42 84.24 189.42 94.61 171.47 84.24 153.52"/><polygon class="cls-4" points="133.22 202.5 112.49 202.5 102.13 220.44 112.49 238.39 133.22 238.39 143.58 220.44 133.22 202.5"/><polygon class="cls-4" points="182.19 251.47 161.46 251.47 151.1 269.42 161.46 287.36 182.19 287.36 192.55 269.42 182.19 251.47"/><polygon class="cls-4" points="231.16 300.44 210.44 300.44 200.07 318.39 210.44 336.34 231.16 336.34 241.52 318.39 231.16 300.44"/><polygon class="cls-4" points="280.13 349.41 259.41 349.41 249.04 367.36 259.41 385.31 280.13 385.31 290.49 367.36 280.13 349.41"/><polygon class="cls-4" points="329.1 398.38 308.38 398.38 298.02 416.33 308.38 434.28 329.1 434.28 339.47 416.33 329.1 398.38"/><polygon class="cls-4" points="33.24 204.52 12.52 204.52 2.16 222.47 12.52 240.42 33.24 240.42 43.6 222.47 33.24 204.52"/><polygon class="cls-4" points="82.22 253.5 61.49 253.5 51.13 271.44 61.49 289.39 82.22 289.39 92.58 271.44 82.22 253.5"/><polygon class="cls-4" points="131.19 302.47 110.46 302.47 100.1 320.42 110.46 338.36 131.19 338.36 141.55 320.42 131.19 302.47"/><polygon class="cls-4" points="180.16 351.44 159.44 351.44 149.07 369.39 159.44 387.34 180.16 387.34 190.52 369.39 180.16 351.44"/><polygon class="cls-4" points="229.13 400.41 208.41 400.41 198.04 418.36 208.41 436.31 229.13 436.31 239.49 418.36 229.13 400.41"/><polygon class="cls-4" points="33.22 302.5 12.49 302.5 2.13 320.44 12.49 338.39 33.22 338.39 43.58 320.44 33.22 302.5"/><polygon class="cls-4" points="82.19 351.47 61.46 351.47 51.1 369.42 61.46 387.36 82.19 387.36 92.55 369.42 82.19 351.47"/><polygon class="cls-4" points="32.19 401.47 11.46 401.47 1.1 419.42 11.46 437.36 32.19 437.36 42.55 419.42 32.19 401.47"/><polygon class="cls-4" points="131.16 400.44 110.44 400.44 100.07 418.39 110.44 436.34 131.16 436.34 141.52 418.39 131.16 400.44"/><polygon class="cls-4" points="133.09 102 112.36 102 102 119.95 112.36 137.9 133.09 137.9 143.45 119.95 133.09 102"/><polygon class="cls-4" points="182.06 150.97 161.34 150.97 150.97 168.92 161.34 186.87 182.06 186.87 192.42 168.92 182.06 150.97"/><polygon class="cls-4" points="231.03 199.94 210.31 199.94 199.94 217.89 210.31 235.84 231.03 235.84 241.39 217.89 231.03 199.94"/><polygon class="cls-4" points="280 248.92 259.28 248.92 248.92 266.87 259.28 284.81 280 284.81 290.37 266.87 280 248.92"/><polygon class="cls-4" points="328.98 297.89 308.25 297.89 297.89 315.84 308.25 333.79 328.98 333.79 339.34 315.84 328.98 297.89"/><polygon class="cls-4" points="377.95 346.86 357.22 346.86 346.86 364.81 357.22 382.76 377.95 382.76 388.31 364.81 377.95 346.86"/><polygon class="cls-4" points="428.95 397.86 408.22 397.86 397.86 415.81 408.22 433.76 428.95 433.76 439.31 415.81 428.95 397.86"/><polygon class="cls-4" points="182.09 53 161.36 53 151 70.95 161.36 88.9 182.09 88.9 192.45 70.95 182.09 53"/><polygon class="cls-4" points="31.24 100.52 10.52 100.52 0.16 118.47 10.52 136.42 31.24 136.42 41.6 118.47 31.24 100.52"/><polygon class="cls-4" points="82.09 51 61.36 51 51 68.95 61.36 86.9 82.09 86.9 92.45 68.95 82.09 51"/><polygon class="cls-4" points="31.09 0 10.36 0 0 17.95 10.36 35.9 31.09 35.9 41.45 17.95 31.09 0"/><polygon class="cls-4" points="131.09 2 110.36 2 100 19.95 110.36 37.9 131.09 37.9 141.45 19.95 131.09 2"/><polygon class="cls-4" points="231.06 101.97 210.34 101.97 199.97 119.92 210.34 137.87 231.06 137.87 241.42 119.92 231.06 101.97"/><polygon class="cls-4" points="280.03 150.94 259.31 150.94 248.94 168.89 259.31 186.84 280.03 186.84 290.39 168.89 280.03 150.94"/><polygon class="cls-4" points="329 199.92 308.28 199.92 297.92 217.87 308.28 235.81 329 235.81 339.37 217.87 329 199.92"/><polygon class="cls-4" points="377.98 248.89 357.25 248.89 346.89 266.84 357.25 284.79 377.98 284.79 388.34 266.84 377.98 248.89"/><polygon class="cls-4" points="426.95 297.86 406.22 297.86 395.86 315.81 406.22 333.76 426.95 333.76 437.31 315.81 426.95 297.86"/><polygon class="cls-4" points="234.09 1 213.36 1 203 18.95 213.36 36.9 234.09 36.9 244.45 18.95 234.09 1"/><polygon class="cls-4" points="283.06 49.97 262.33 49.97 251.97 67.92 262.33 85.87 283.06 85.87 293.42 67.92 283.06 49.97"/><polygon class="cls-4" points="332.03 98.94 311.31 98.94 300.94 116.89 311.31 134.84 332.03 134.84 342.39 116.89 332.03 98.94"/><polygon class="cls-4" points="381 147.92 360.28 147.92 349.92 165.87 360.28 183.81 381 183.81 391.37 165.87 381 147.92"/><polygon class="cls-4" points="429.98 196.89 409.25 196.89 398.89 214.84 409.25 232.78 429.98 232.78 440.34 214.84 429.98 196.89"/><polygon class="cls-4" points="331.56 1.47 310.83 1.47 300.47 19.42 310.83 37.37 331.56 37.37 341.92 19.42 331.56 1.47"/><polygon class="cls-4" points="380.53 50.45 359.81 50.45 349.44 68.39 359.81 86.34 380.53 86.34 390.89 68.39 380.53 50.45"/><polygon class="cls-4" points="429.5 99.42 408.78 99.42 398.42 117.36 408.78 135.31 429.5 135.31 439.87 117.36 429.5 99.42"/><polygon class="cls-4" points="430.03 0.94 409.31 0.94 398.94 18.89 409.31 36.84 430.03 36.84 440.39 18.89 430.03 0.94"/></g></g></g></g></svg>