<?xml version="1.0" ?><svg data-name="Layer 1" id="Layer_1" viewBox="0 0 272 272" xmlns="http://www.w3.org/2000/svg"><defs><style>.cls-1{fill:#564c4d;}</style></defs><title/><path class="cls-1" d="M217.06,93.69C207,137,176.35,165,176.35,165S162,122.89,172.06,79.63,200.34,4.44,212.77,8.32,227.12,50.43,217.06,93.69Z"/><path class="cls-1" d="M54.94,93.69C65,137,95.65,165,95.65,165S110,122.89,99.94,79.63,71.66,4.44,59.23,8.32,44.88,50.43,54.94,93.69Z"/><path class="cls-1" d="M207.42,178.68l-10.07-26.4a75.43,75.43,0,0,0-4.06-8.86,81.39,81.39,0,0,0-5-8.16,84.06,84.06,0,0,0-10.2-12.12,76.17,76.17,0,0,0-10-8.32C158.51,108.17,147.5,104,136,104s-22.48,4.15-32.06,10.78q-2.79,1.94-5.41,4.13a82.37,82.37,0,0,0-6.93,6.55h0a85.63,85.63,0,0,0-8.87,11.19c-1.45,2.19-2.8,4.44-4,6.72a75.39,75.39,0,0,0-4.08,8.9l-10,26.37a52.89,52.89,0,0,0,.18,38.57C75.69,244.57,103.46,264,136,264c33.09,0,61.26-20.12,71.8-48.23A52.32,52.32,0,0,0,207.42,178.68ZM92,206c-6.63,0-12-2.69-12-6s5.37-6,12-6,12,2.69,12,6S98.63,206,92,206Zm6-30a8,8,0,1,1,8,8A8,8,0,0,1,98,176Zm50,56a14.59,14.59,0,0,1-12-5.84A14.59,14.59,0,0,1,124,232c-7.73,0-14-5.37-14-12h4c0,4.41,4.49,8,10,8,4,0,7.5-1.91,9.09-4.67a11.06,11.06,0,0,1-6-4l-1.17-1.54a6.34,6.34,0,0,1,.39-8.22,8.23,8.23,0,0,1,6-2.53h7.5a8.22,8.22,0,0,1,6.27,2.89,6.28,6.28,0,0,1,.08,7.85l-1.18,1.55a11.05,11.05,0,0,1-6,4C140.49,226.08,144,228,148,228c5.51,0,10-3.59,10-8h4C162,226.63,155.73,232,148,232Zm10-56a8,8,0,1,1,8,8A8,8,0,0,1,158,176Zm22,30c-6.63,0-12-2.69-12-6s5.37-6,12-6,12,2.69,12,6S186.63,206,180,206Z"/></svg>